<?xml version="1.0" encoding="iso-8859-1"?>
<!-- Generator: Adobe Illustrator 19.0.0, SVG Export Plug-In . SVG Version: 6.00 Build 0)  -->
<svg version="1.1" id="Capa_1" xmlns="http://www.w3.org/2000/svg" xmlns:xlink="http://www.w3.org/1999/xlink" x="0px" y="0px"
	 viewBox="0 0 480.005 480.005" style="enable-background:new 0 0 480.005 480.005;" xml:space="preserve">
<g>
	<path style="fill:#DEDEDE;" d="M8.002,480.003c-4.418,0-8-3.582-8-8v-88c0.002-1.58,0.47-3.124,1.344-4.44l14.656-21.96v-29.6
		c0-4.418,3.582-8,8-8s8,3.582,8,8v32c-0.002,1.58-0.47,3.124-1.344,4.44l-14.656,21.96v85.6
		C16.002,476.421,12.42,480.003,8.002,480.003z"/>
	<path style="fill:#DEDEDE;" d="M472.002,480.003c-4.418,0-8-3.582-8-8v-85.6l-14.656-21.984c-0.87-1.309-1.337-2.844-1.344-4.416
		v-64c0-4.418,3.582-8,8-8s8,3.582,8,8v61.6l14.656,21.984c0.87,1.309,1.337,2.844,1.344,4.416v88
		C480.002,476.421,476.42,480.003,472.002,480.003z"/>
</g>
<path style="fill:#4398D1;" d="M112.002,200.003h40v32h0.456c16.085-13.538,35.102-23.144,55.544-28.056v-35.944h-96V200.003z"/>
<g>
	<path style="fill:#DEDEDE;" d="M112.002,136.003h96v32h-96V136.003z"/>
	<path style="fill:#DEDEDE;" d="M272.002,160.003h-64v16h24v24h16v-24h24V160.003z"/>
	<path style="fill:#DEDEDE;" d="M272.002,136.003h96v32h-96V136.003z"/>
</g>
<path style="fill:#4398D1;" d="M272.002,203.947c20.442,4.912,39.459,14.518,55.544,28.056h0.456v-32h40v-32h-96V203.947z"/>
<g>
	<path style="fill:#DEDEDE;" d="M96.002,0.003h16v24h-16V0.003z"/>
	<path style="fill:#DEDEDE;" d="M8.002,128.003c-4.418,0.001-8.001-3.58-8.002-7.998c-0.001-3.23,1.941-6.143,4.922-7.386
		l91.08-37.952V56.003c0-4.418,3.582-8,8-8s8,3.582,8,8v24c0,3.229-1.94,6.141-4.92,7.384l-96,40
		C10.106,127.795,9.059,128.005,8.002,128.003z"/>
	<path style="fill:#DEDEDE;" d="M64.002,96.003h16v320h-16V96.003z"/>
	<path style="fill:#DEDEDE;" d="M136.002,480.003c-2.122,0-4.156-0.844-5.656-2.344l-58.344-58.344l-58.344,58.344
		c-3.178,3.07-8.242,2.982-11.312-0.196c-2.994-3.1-2.994-8.016,0-11.116l64-64c3.124-3.123,8.188-3.123,11.312,0l64,64
		c3.124,3.125,3.123,8.19-0.002,11.314C140.156,479.16,138.122,480.002,136.002,480.003L136.002,480.003z"/>
</g>
<path style="fill:#FDB62F;" d="M72.002,24.003h64c17.673,0,32,14.327,32,32l0,0h-128l0,0C40.002,38.33,54.328,24.003,72.002,24.003z
	"/>
<path style="fill:#FFA83D;" d="M136.002,24.003h-32c17.673,0,32,14.327,32,32h32C168.002,38.33,153.675,24.003,136.002,24.003z"/>
<g>
	<path style="fill:#DEDEDE;" d="M368.002,0.003h16v24h-16V0.003z"/>
	<path style="fill:#DEDEDE;" d="M472.002,128.003c-1.057,0.002-2.105-0.207-3.08-0.616l-96-40c-2.98-1.243-4.92-4.155-4.92-7.384
		v-24c0-4.418,3.582-8,8-8s8,3.582,8,8v18.664l91.08,37.952c4.078,1.7,6.006,6.384,4.306,10.462
		C478.145,126.062,475.231,128.003,472.002,128.003L472.002,128.003z"/>
	<path style="fill:#DEDEDE;" d="M400.002,96.003h16v320h-16V96.003z"/>
	<path style="fill:#DEDEDE;" d="M472.002,480.003c-2.122,0-4.156-0.844-5.656-2.344l-58.344-58.344l-58.344,58.344
		c-3.178,3.07-8.242,2.982-11.312-0.196c-2.995-3.1-2.995-8.016,0-11.116l64-64c3.124-3.123,8.188-3.123,11.312,0l64,64
		c3.124,3.125,3.123,8.19-0.002,11.314C476.156,479.16,474.122,480.002,472.002,480.003z"/>
</g>
<path style="fill:#FDB62F;" d="M440.002,56.003h-128l0,0c0-17.673,14.327-32,32-32h64C425.675,24.003,440.002,38.33,440.002,56.003
	L440.002,56.003z"/>
<path style="fill:#4398D1;" d="M16.002,328.003h88.4c2.127-37.033,19.329-71.578,47.6-95.592v-0.408h-136V328.003z"/>
<path style="fill:#DEDEDE;" d="M16.002,200.003h136v32h-136V200.003z"/>
<path style="fill:#4398D1;" d="M328.002,232.411c19.771,16.764,34.343,38.827,42,63.592h94v-64h-136V232.411z"/>
<g>
	<path style="fill:#DEDEDE;" d="M328.002,200.003h136v32h-136V200.003z"/>
	<path style="fill:#DEDEDE;" d="M72.002,480.003c-4.418-0.001-7.999-3.583-7.998-8.002c0-2.121,0.843-4.154,2.342-5.654l64-64
		c3.178-3.069,8.243-2.982,11.312,0.196c2.994,3.1,2.994,8.015,0,11.116l-64,64C76.158,479.159,74.123,480.002,72.002,480.003z"/>
	<path style="fill:#DEDEDE;" d="M408.002,480.003c-2.122,0-4.156-0.844-5.656-2.344l-61.656-64
		c-3.07-3.178-2.982-8.242,0.196-11.312c3.1-2.995,8.016-2.995,11.116,0l61.656,64c3.124,3.125,3.123,8.19-0.002,11.314
		C412.156,479.16,410.122,480.002,408.002,480.003z"/>
	<path style="fill:#DEDEDE;" d="M312.002,480.003c-4.418,0-8-3.582-8-8v-32c0-4.418,3.582-8,8-8s8,3.582,8,8v32
		C320.002,476.421,316.42,480.003,312.002,480.003z"/>
	<path style="fill:#DEDEDE;" d="M168.002,480.003c-4.418,0-8-3.582-8-8v-32c0-4.418,3.582-8,8-8s8,3.582,8,8v32
		C176.002,476.421,172.42,480.003,168.002,480.003z"/>
</g>
<circle style="fill:#4398D1;" cx="240.002" cy="336.003" r="136"/>
<path style="fill:#3E8CC7;" d="M152.002,232.411v-0.408h-22.904c-24.561,26.136-38.997,60.175-40.712,96h16
	C106.516,290.968,123.724,256.422,152.002,232.411L152.002,232.411z"/>
<path style="fill:#CFCFCF;" d="M129.098,232.003h22.904v-20C143.718,217.887,136.045,224.587,129.098,232.003L129.098,232.003z"/>
<path style="fill:#3E8CC7;" d="M328.002,232.003v0.408c19.771,16.764,34.343,38.827,42,63.592h15.68
	c-6.469-23.942-18.734-45.922-35.712-64H328.002z"/>
<path style="fill:#CFCFCF;" d="M349.97,232.003c-6.683-7.133-14.04-13.603-21.968-19.32v19.32H349.97z"/>
<path style="fill:#FFA83D;" d="M408.002,24.003h-32c17.673,0,32,14.327,32,32h32C440.002,38.33,425.675,24.003,408.002,24.003z"/>
<g>
	<path style="fill:#CFCFCF;" d="M96.002,56.003h16v16h-16V56.003z"/>
	<path style="fill:#CFCFCF;" d="M368.002,56.003h16v16h-16V56.003z"/>
	<path style="fill:#CFCFCF;" d="M208.002,160.003h16v16h-16V160.003z"/>
	<path style="fill:#CFCFCF;" d="M256.002,160.003h16v16h-16V160.003z"/>
</g>
<path style="fill:#3E8CC7;" d="M353.05,260.411c-38.568,101.248-142.728,146.128-214.888,165.52
	c49.693,56.27,135.593,61.601,191.862,11.908C381.027,392.796,390.866,316.98,353.05,260.411L353.05,260.411z"/>
<circle style="fill:#CFCFCF;" cx="240.002" cy="336.003" r="104"/>
<circle style="fill:#DEDEDE;" cx="240.002" cy="336.003" r="88"/>
<g>
	<path style="fill:#CFCFCF;" d="M180.162,400.395c35.483,33.115,91.092,31.195,124.207-4.288
		c25.027-26.817,30.765-66.359,14.393-99.184C284.423,344.965,235.983,381.128,180.162,400.395L180.162,400.395z"/>
	<path style="fill:#CFCFCF;" d="M440.002,200.003h24v32h-24V200.003z"/>
</g>
<path style="fill:#3E8CC7;" d="M440.002,232.003h24v64h-24V232.003z"/>
<g>
	<path style="fill:#CFCFCF;" d="M16.002,328.003h16v16h-16V328.003z"/>
	<path style="fill:#CFCFCF;" d="M64.002,328.003h16v16h-16V328.003z"/>
	<path style="fill:#CFCFCF;" d="M400.002,296.003h16v16h-16V296.003z"/>
	<path style="fill:#CFCFCF;" d="M448.002,296.003h16v16h-16V296.003z"/>
</g>
<g>
</g>
<g>
</g>
<g>
</g>
<g>
</g>
<g>
</g>
<g>
</g>
<g>
</g>
<g>
</g>
<g>
</g>
<g>
</g>
<g>
</g>
<g>
</g>
<g>
</g>
<g>
</g>
<g>
</g>
</svg>
