<svg height="464pt" viewBox="0 0 464 464" width="464pt" xmlns="http://www.w3.org/2000/svg"><path d="m32 256h400v208h-400zm0 0" fill="#8ec13f"/><path d="m384 464h-304l40-208h232zm0 0" fill="#55b56a"/><path d="m0 0h32v464h-32zm0 0" fill="#d3843d"/><path d="m432 0h32v464h-32zm0 0" fill="#d3843d"/><path d="m32 32h400v144h-400zm0 0" fill="#ffd782"/><path d="m199.519531 256-22.800781 208h-16l22.722656-208zm0 0" fill="#cfdfe8"/><path d="m303.121094 464h-16.242188l-30.320312-208h16.242187zm0 0" fill="#cfdfe8"/><g fill="#dd3e46"><path d="m128 144h-40v-16h24v-16h-24v-48h40v16h-24v16h24zm0 0"/><path d="m144 80h16v64h16v-64h16v-16h-48zm0 0"/><path d="m384 64h-48v16h16v64h16v-64h16zm0 0"/><path d="m208 144h16v-32h16v32h16v-80h-48zm32-64v16h-16v-16zm0 0"/><path d="m272 64v80h16v-28.6875l16 16v12.6875h16v-19.3125l-12.6875-12.6875h12.6875v-48zm16 16h16v16h-16zm0 0"/></g></svg>